<svg width="393" height="1325" viewBox="0 0 393 1325" fill="none" xmlns="http://www.w3.org/2000/svg">
<path d="M146.939 10.9393C146.354 11.5251 146.354 12.4749 146.939 13.0607L156.485 22.6066C157.071 23.1924 158.021 23.1924 158.607 22.6066C159.192 22.0208 159.192 21.0711 158.607 20.4853L150.121 12L158.607 3.51472C159.192 2.92893 159.192 1.97918 158.607 1.3934C158.021 0.807612 157.071 0.807612 156.485 1.3934L146.939 10.9393ZM196.5 92C196.5 92.8284 197.172 93.5 198 93.5C198.828 93.5 199.5 92.8284 199.5 92H196.5ZM148 13.5H174V10.5H148V13.5ZM196.5 36V92H199.5V36H196.5ZM174 13.5C186.426 13.5 196.5 23.5736 196.5 36H199.5C199.5 21.9167 188.083 10.5 174 10.5V13.5Z" fill="#1C1514"/>
<path d="M146.939 571.121C146.354 571.707 146.354 572.657 146.939 573.243L156.485 582.789C157.071 583.374 158.021 583.374 158.607 582.789C159.192 582.203 159.192 581.253 158.607 580.667L150.121 572.182L158.607 563.697C159.192 563.111 159.192 562.161 158.607 561.575C158.021 560.99 157.071 560.99 156.485 561.575L146.939 571.121ZM199.501 595.214C199.501 594.386 198.83 593.714 198.001 593.714C197.173 593.714 196.501 594.386 196.501 595.214H199.501ZM148 573.682L179.091 573.682L179.091 570.682L148 570.682L148 573.682ZM196.5 591.091V609.999H199.5V591.091H196.5ZM199.501 609.999V595.214H196.501V609.999H199.501ZM198.001 611.5C198.829 611.5 199.501 610.828 199.501 609.999H196.501C196.501 609.171 197.173 608.5 198.001 608.5V611.5ZM196.5 609.999C196.5 610.826 197.17 611.5 198.001 611.5V608.5C198.83 608.5 199.5 609.173 199.5 609.999H196.5ZM179.091 573.682C188.706 573.682 196.5 581.476 196.5 591.091H199.5C199.5 579.819 190.363 570.682 179.091 570.682L179.091 573.682Z" fill="#1C1514"/>
<path d="M146.939 1088.94C146.354 1089.53 146.354 1090.47 146.939 1091.06L156.485 1100.61C157.071 1101.19 158.021 1101.19 158.607 1100.61C159.192 1100.02 159.192 1099.07 158.607 1098.49L150.121 1090L158.607 1081.51C159.192 1080.93 159.192 1079.98 158.607 1079.39C158.021 1078.81 157.071 1078.81 156.485 1079.39L146.939 1088.94ZM199.501 1113.03C199.501 1112.2 198.83 1111.53 198.001 1111.53C197.173 1111.53 196.501 1112.2 196.501 1113.03H199.501ZM148 1091.5H179.091V1088.5H148V1091.5ZM196.5 1108.91V1127.82H199.5V1108.91H196.5ZM199.501 1127.82V1113.03H196.501V1127.82H199.501ZM198.001 1129.32C198.829 1129.32 199.501 1128.65 199.501 1127.82H196.501C196.501 1126.99 197.173 1126.32 198.001 1126.32V1129.32ZM196.5 1127.82C196.5 1128.64 197.17 1129.32 198.001 1129.32V1126.32C198.83 1126.32 199.5 1126.99 199.5 1127.82H196.5ZM179.091 1091.5C188.706 1091.5 196.5 1099.29 196.5 1108.91H199.5C199.5 1097.64 190.362 1088.5 179.091 1088.5V1091.5Z" fill="#1C1514"/>
<path d="M247.061 293.061C247.646 292.475 247.646 291.525 247.061 290.939L237.515 281.393C236.929 280.808 235.979 280.808 235.393 281.393C234.808 281.979 234.808 282.929 235.393 283.515L243.879 292L235.393 300.485C234.808 301.071 234.808 302.021 235.393 302.607C235.979 303.192 236.929 303.192 237.515 302.607L247.061 293.061ZM196.5 372C196.5 372.828 197.172 373.5 198 373.5C198.828 373.5 199.5 372.828 199.5 372H196.5ZM246 290.5L222 290.5L222 293.5L246 293.5L246 290.5ZM196.5 316V372H199.5V316H196.5ZM222 290.5C207.917 290.5 196.5 301.917 196.5 316H199.5C199.5 303.574 209.574 293.5 222 293.5L222 290.5Z" fill="#1C1514"/>
<path d="M247.061 811.061C247.646 810.475 247.646 809.525 247.061 808.939L237.515 799.393C236.929 798.808 235.979 798.808 235.393 799.393C234.808 799.979 234.808 800.929 235.393 801.515L243.879 810L235.393 818.485C234.808 819.071 234.808 820.021 235.393 820.607C235.979 821.192 236.929 821.192 237.515 820.607L247.061 811.061ZM196.5 890C196.5 890.828 197.172 891.5 198 891.5C198.828 891.5 199.5 890.828 199.5 890H196.5ZM246 808.5H222V811.5H246V808.5ZM196.5 834V890H199.5V834H196.5ZM222 808.5C207.917 808.5 196.5 819.917 196.5 834H199.5C199.5 821.574 209.574 811.5 222 811.5V808.5Z" fill="#1C1514"/>
<line x1="-1.31134e-07" y1="1323.5" x2="393" y2="1323.5" stroke="#1C1514" stroke-width="3"/>
<path d="M198 36L198 1322" stroke="#1C1514" stroke-width="3" stroke-linecap="round" stroke-linejoin="round"/>
</svg>
