<svg width="15" height="18" viewBox="0 0 15 18" fill="none" xmlns="http://www.w3.org/2000/svg">
<path d="M14 7.4C14 12.2 7.5 17 7.5 17C7.5 17 1 12.2 1 7.4C1 5.70261 1.68482 4.07475 2.90381 2.87452C4.12279 1.67428 5.77609 1 7.5 1C9.22391 1 10.8772 1.67428 12.0962 2.87452C13.3152 4.07475 14 5.70261 14 7.4Z" stroke="#09090B" stroke-width="2" stroke-linecap="round" stroke-linejoin="round"/>
<path d="M7.5 9.8C8.84619 9.8 9.9375 8.72548 9.9375 7.4C9.9375 6.07452 8.84619 5 7.5 5C6.15381 5 5.0625 6.07452 5.0625 7.4C5.0625 8.72548 6.15381 9.8 7.5 9.8Z" stroke="#09090B" stroke-width="2" stroke-linecap="round" stroke-linejoin="round"/>
</svg>
