<svg width="24" height="24" viewBox="0 0 24 24" fill="none" xmlns="http://www.w3.org/2000/svg">
<path d="M19.9442 7.55589C19.9569 7.7497 19.9569 7.94355 19.9569 8.13735C19.9569 14.0487 15.8326 20.86 8.29444 20.86C5.97209 20.86 3.81473 20.1262 2 18.8526C2.32996 18.8941 2.64719 18.908 2.98985 18.908C4.90607 18.908 6.67006 18.202 8.0787 16.9975C6.27666 16.956 4.7665 15.6685 4.24618 13.8964C4.50001 13.9379 4.7538 13.9656 5.02032 13.9656C5.38833 13.9656 5.75638 13.9102 6.099 13.8134C4.22083 13.398 2.81215 11.5984 2.81215 9.42485V9.36949C3.35782 9.70175 3.99239 9.90941 4.66493 9.93706C3.56087 9.13409 2.83754 7.76355 2.83754 6.213C2.83754 5.38237 3.04055 4.62095 3.3959 3.95643C5.41369 6.66986 8.4467 8.44187 11.8477 8.63572C11.7843 8.30346 11.7462 7.9574 11.7462 7.61129C11.7462 5.14702 13.5736 3.13965 15.8452 3.13965C17.0254 3.13965 18.0914 3.67957 18.8401 4.55174C19.7665 4.35794 20.6548 3.98413 21.4416 3.47191C21.137 4.51024 20.4898 5.38241 19.6396 5.93614C20.4645 5.83928 21.264 5.59003 22 5.24396C21.4417 6.12995 20.7437 6.91903 19.9442 7.55589Z" fill="#CDCAC7"/>
</svg>
